<svg xmlns="http://www.w3.org/2000/svg" width="73.011" height="43.871" viewBox="0 0 73.011 43.871">
  <g id="Group_3" data-name="Group 3" transform="translate(-681 -296)">
    <path id="Path_13" data-name="Path 13" d="M10.181,0,4.356,8.274V0H0V19.056H4.356v-8.8l6.1,8.8h4.954L8.71,9.282,15.136,0Z" transform="translate(681 296)" fill="#fff"/>
    <path id="Path_14" data-name="Path 14" d="M39.884,21.942a7.329,7.329,0,0,1-10.235,0,6.914,6.914,0,0,1-2.1-5.1,6.917,6.917,0,0,1,2.1-5.1,7.331,7.331,0,0,1,10.235,0,6.919,6.919,0,0,1,2.1,5.1,6.916,6.916,0,0,1-2.1,5.1m-7.35-2.79a3.223,3.223,0,0,0,4.464,0,3.131,3.131,0,0,0,.9-2.314,3.131,3.131,0,0,0-.9-2.314,3.223,3.223,0,0,0-4.464,0,3.131,3.131,0,0,0-.9,2.314,3.131,3.131,0,0,0,.9,2.314" transform="translate(667.903 291.412)" fill="#fff"/>
    <path id="Path_15" data-name="Path 15" d="M66.4,9.651a4.863,4.863,0,0,1,3.635,1.5,5.686,5.686,0,0,1,1.456,4.137v8.358H67.409V15.885a2.425,2.425,0,0,0-.667-1.837,2.356,2.356,0,0,0-1.7-.64,2.447,2.447,0,0,0-1.851.708,2.914,2.914,0,0,0-.681,2.1v7.432H58.425V10.032h4.083v1.279A4.517,4.517,0,0,1,66.4,9.651" transform="translate(653.228 291.412)" fill="#fff"/>
    <path id="Path_16" data-name="Path 16" d="M94.338,10.378h4.356l-4.655,13.2a9.543,9.543,0,0,1-3.008,4.6,7.154,7.154,0,0,1-4.75,1.252V25.623a3.95,3.95,0,0,0,2.177-.5,3.452,3.452,0,0,0,1.225-1.756L84.266,10.378h4.491l3.022,8.33Z" transform="translate(640.944 291.067)" fill="#fff"/>
    <path id="Path_17" data-name="Path 17" d="M121.81,10.033h4.083V23.644H121.81v-1.28a5.087,5.087,0,0,1-4.057,1.661,6.012,6.012,0,0,1-4.6-2.083,7.28,7.28,0,0,1-1.906-5.1,7.284,7.284,0,0,1,1.906-5.1,6.014,6.014,0,0,1,4.6-2.082,5.087,5.087,0,0,1,4.057,1.661Zm-5.581,9.229a3.5,3.5,0,0,0,4.682,0,3.276,3.276,0,0,0,.9-2.423,3.274,3.274,0,0,0-.9-2.423,3.5,3.5,0,0,0-4.682,0,3.272,3.272,0,0,0-.9,2.423,3.273,3.273,0,0,0,.9,2.423" transform="translate(628.118 291.412)" fill="#fff"/>
    <path id="Path_18" data-name="Path 18" d="M19.056,46.572V65.628H14.7V54.548L9.773,62.633H9.283L4.356,54.548V65.628H0V46.572H4.356l5.172,8.466L14.7,46.572Z" transform="translate(681 273.862)" fill="#fff"/>
    <path id="Path_19" data-name="Path 19" d="M52.285,68.514a7.329,7.329,0,0,1-10.236,0,7.262,7.262,0,0,1,0-10.209A7.228,7.228,0,0,1,52.285,68.514m-7.35-2.79a3.223,3.223,0,0,0,4.465,0,3.428,3.428,0,0,0,0-4.628,3.223,3.223,0,0,0-4.465,0,3.428,3.428,0,0,0,0,4.628" transform="translate(662.008 269.274)" fill="#fff"/>
    <path id="Path_20" data-name="Path 20" d="M77.3,57.417h-2.8v4.818a.964.964,0,0,0,.653,1.034,6.377,6.377,0,0,0,2.151.136v3.7q-3.893.408-5.39-.749t-1.5-4.124V57.417H68.233V53.5h2.178V50.911l4.083-1.225V53.5h2.8Z" transform="translate(648.565 272.382)" fill="#fff"/>
    <path id="Path_21" data-name="Path 21" d="M99.4,68.514a7.329,7.329,0,0,1-10.235,0,7.262,7.262,0,0,1,0-10.209A7.228,7.228,0,0,1,99.4,68.514m-7.35-2.79a3.223,3.223,0,0,0,4.464,0,3.428,3.428,0,0,0,0-4.628,3.223,3.223,0,0,0-4.464,0,3.428,3.428,0,0,0,0,4.628" transform="translate(639.612 269.274)" fill="#fff"/>
    <path id="Path_22" data-name="Path 22" d="M122.024,59.125a3.342,3.342,0,0,1,1.538-2,4.855,4.855,0,0,1,2.545-.695v4.628a4.085,4.085,0,0,0-2.79.5,2.751,2.751,0,0,0-1.293,2.6v6.152h-4.083V56.7h4.083Z" transform="translate(624.936 269.176)" fill="#fff"/>
  </g>
</svg>
