<svg xmlns="http://www.w3.org/2000/svg" width="92.719" height="55.713" viewBox="0 0 92.719 55.713">
  <g id="Group_157" data-name="Group 157" transform="translate(0)">
    <path id="Path_13" data-name="Path 13" d="M12.929,0l-7.4,10.508V0H0V24.2H5.532V13.021L13.275,24.2h6.291l-8.5-12.412L19.221,0Z" transform="translate(0 0)" fill="#0b1d31"/>
    <path id="Path_14" data-name="Path 14" d="M43.212,25.26a9.307,9.307,0,0,1-13,0,8.78,8.78,0,0,1-2.662-6.481A8.784,8.784,0,0,1,30.214,12.3a9.31,9.31,0,0,1,13,0,8.786,8.786,0,0,1,2.662,6.483,8.782,8.782,0,0,1-2.662,6.481m-9.334-3.543a4.092,4.092,0,0,0,5.669,0,3.976,3.976,0,0,0,1.141-2.938,3.976,3.976,0,0,0-1.141-2.939,4.092,4.092,0,0,0-5.669,0,3.976,3.976,0,0,0-1.141,2.939,3.976,3.976,0,0,0,1.141,2.938" transform="translate(-9.195 -3.221)" fill="#0b1d31"/>
    <path id="Path_15" data-name="Path 15" d="M68.554,9.651a6.176,6.176,0,0,1,4.616,1.9,7.221,7.221,0,0,1,1.849,5.254V27.42H69.833V17.568a3.08,3.08,0,0,0-.847-2.333,2.992,2.992,0,0,0-2.16-.813,3.107,3.107,0,0,0-2.351.9,3.7,3.7,0,0,0-.865,2.662V27.42H58.425V10.135h5.186V11.76a5.736,5.736,0,0,1,4.944-2.109" transform="translate(-19.499 -3.221)" fill="#0b1d31"/>
    <path id="Path_16" data-name="Path 16" d="M97.057,10.378h5.531L96.677,27.144a12.119,12.119,0,0,1-3.82,5.842,9.085,9.085,0,0,1-6.032,1.59v-4.84a5.016,5.016,0,0,0,2.765-.64,4.384,4.384,0,0,0,1.556-2.23l-6.879-16.49h5.7l3.838,10.578Z" transform="translate(-28.123 -3.464)" fill="#0b1d31"/>
    <path id="Path_17" data-name="Path 17" d="M124.661,10.136h5.185V27.421h-5.185V25.8a6.461,6.461,0,0,1-5.152,2.109,7.635,7.635,0,0,1-5.842-2.645,9.246,9.246,0,0,1-2.42-6.481,9.25,9.25,0,0,1,2.42-6.483,7.638,7.638,0,0,1,5.842-2.644,6.461,6.461,0,0,1,5.152,2.109Zm-7.088,11.72a4.445,4.445,0,0,0,5.946,0,4.16,4.16,0,0,0,1.141-3.077A4.158,4.158,0,0,0,123.52,15.7a4.445,4.445,0,0,0-5.946,0,4.155,4.155,0,0,0-1.141,3.077,4.157,4.157,0,0,0,1.141,3.077" transform="translate(-37.127 -3.221)" fill="#0b1d31"/>
    <path id="Path_18" data-name="Path 18" d="M24.2,46.572v24.2H18.668V56.7L12.411,66.968h-.622L5.532,56.7v14.07H0v-24.2H5.532L12.1,57.324l6.569-10.751Z" transform="translate(0 -15.543)" fill="#0b1d31"/>
    <path id="Path_19" data-name="Path 19" d="M55.614,71.832a9.308,9.308,0,0,1-13,0,9.222,9.222,0,0,1,0-12.964,9.311,9.311,0,0,1,13,0,9.225,9.225,0,0,1,0,12.964M46.28,68.289a4.093,4.093,0,0,0,5.67,0,4.354,4.354,0,0,0,0-5.877,4.093,4.093,0,0,0-5.67,0,4.354,4.354,0,0,0,0,5.877" transform="translate(-13.334 -18.764)" fill="#0b1d31"/>
    <path id="Path_20" data-name="Path 20" d="M79.745,59.5h-3.56v6.119a1.224,1.224,0,0,0,.829,1.313,8.1,8.1,0,0,0,2.731.173v4.7q-4.944.518-6.844-.951T71,65.623V59.5H68.233V54.526H71V51.242l5.185-1.556v4.84h3.56Z" transform="translate(-22.772 -16.582)" fill="#0b1d31"/>
    <path id="Path_21" data-name="Path 21" d="M102.727,71.832a9.307,9.307,0,0,1-13,0,9.222,9.222,0,0,1,0-12.964,9.179,9.179,0,0,1,13,12.964m-9.334-3.543a4.092,4.092,0,0,0,5.669,0,4.354,4.354,0,0,0,0-5.877,4.092,4.092,0,0,0-5.669,0,4.354,4.354,0,0,0,0,5.877" transform="translate(-29.058 -18.764)" fill="#0b1d31"/>
    <path id="Path_22" data-name="Path 22" d="M123.126,59.853a4.244,4.244,0,0,1,1.953-2.54,6.165,6.165,0,0,1,3.232-.882v5.878a5.188,5.188,0,0,0-3.543.64,3.493,3.493,0,0,0-1.642,3.3v7.813h-5.186V56.776h5.186Z" transform="translate(-39.361 -18.833)" fill="#0b1d31"/>
  </g>
</svg>
