<svg xmlns="http://www.w3.org/2000/svg" width="73" height="73" viewBox="0 0 73 73">
  <g id="Group_8" data-name="Group 8" transform="translate(-166 -62)">
    <g id="Group_7" data-name="Group 7">
      <rect id="Rectangle_3" data-name="Rectangle 3" width="73" height="73" transform="translate(166 62)" fill="#dd1b0a"/>
      <g id="Group_2" data-name="Group 2" transform="translate(0.59 0.419)">
        <path id="Path_11" data-name="Path 11" d="M41.4,56.315H36.017L31.06,41.727l-2.193,4.291v10.3H23.813V22.944h5.054V36.865h.1L35.97,22.944h5.292L34.4,36.2Z" transform="translate(157.598 53.637)" fill="#fff"/>
        <path id="Path_12" data-name="Path 12" d="M64.383,56.315V33.146h-.1l-4.195,18.4h-3l-4.2-18.4h-.1V56.315H48.032V22.944h6.626l3.958,17.925h.1L62.62,22.944h6.817V56.315Z" transform="translate(153.974 53.637)" fill="#fff"/>
        <rect id="Rectangle_4" data-name="Rectangle 4" width="42" height="5.053" transform="translate(181.411 115.005)" fill="#fff"/>
      </g>
    </g>
    <path id="Path_23" data-name="Path 23" d="M2-2.358v-.66h.42a1.385,1.385,0,0,1,.177.012.609.609,0,0,1,.168.045.319.319,0,0,1,.123.093.252.252,0,0,1,.048.162q0,.228-.138.288a.894.894,0,0,1-.354.06Zm-.5-1.05V-.894H2V-1.968h.312L2.928-.894H3.45l-.672-1.1a1.055,1.055,0,0,0,.258-.054.64.64,0,0,0,.21-.12.529.529,0,0,0,.141-.2.775.775,0,0,0,.051-.3.637.637,0,0,0-.255-.576,1.324,1.324,0,0,0-.729-.168Zm-.8,1.26a1.836,1.836,0,0,1,.132-.7,1.727,1.727,0,0,1,.36-.555,1.642,1.642,0,0,1,.537-.366A1.67,1.67,0,0,1,2.4-3.906a1.655,1.655,0,0,1,.657.132,1.642,1.642,0,0,1,.537.366,1.768,1.768,0,0,1,.363.555,1.8,1.8,0,0,1,.135.7,1.823,1.823,0,0,1-.135.708,1.8,1.8,0,0,1-.363.561,1.62,1.62,0,0,1-.537.369A1.655,1.655,0,0,1,2.4-.378,1.67,1.67,0,0,1,1.737-.51,1.62,1.62,0,0,1,1.2-.879,1.754,1.754,0,0,1,.84-1.44,1.859,1.859,0,0,1,.708-2.148Zm-.612,0a2.214,2.214,0,0,0,.189.93A2.191,2.191,0,0,0,.792-.51a2.213,2.213,0,0,0,.735.45A2.471,2.471,0,0,0,2.4.1,2.471,2.471,0,0,0,3.273-.06a2.213,2.213,0,0,0,.735-.45,2.191,2.191,0,0,0,.507-.708,2.214,2.214,0,0,0,.189-.93,2.2,2.2,0,0,0-.189-.924,2.157,2.157,0,0,0-.507-.7,2.281,2.281,0,0,0-.735-.45A2.43,2.43,0,0,0,2.4-4.386a2.43,2.43,0,0,0-.873.159,2.281,2.281,0,0,0-.735.45,2.157,2.157,0,0,0-.507.7A2.2,2.2,0,0,0,.1-2.148Z" transform="translate(226 81.145)" fill="#fff"/>
  </g>
</svg>
