<svg id="Group_107" data-name="Group 107" xmlns="http://www.w3.org/2000/svg" xmlns:xlink="http://www.w3.org/1999/xlink" width="58.078" height="36.553" viewBox="0 0 58.078 36.553">
  <defs>
    <clipPath id="clip-path">
      <rect id="Rectangle_103" data-name="Rectangle 103" width="58.078" height="36.553" fill="none"/>
    </clipPath>
  </defs>
  <g id="Group_106" data-name="Group 106" clip-path="url(#clip-path)">
    <path id="Path_844" data-name="Path 844" d="M70.7,193.436q.014,8.6-7.872,14.645-7.925,6.034-19.126,6.031-11.163-.023-19.08-6.078-7.929-6.077-7.943-14.671c0-5.671,2.595-10.547,7.883-14.586q7.9-6.031,19.041-6.021c7.489,0,13.857,2.032,19.154,6.067,5.269,4.056,7.935,8.927,7.943,14.613m-8.492-.007a18.606,18.606,0,0,0-18.533-18.6A17.66,17.66,0,0,0,30.6,180.247a17.7,17.7,0,0,0-5.415,13.13,18.684,18.684,0,0,0,18.582,18.67,17.687,17.687,0,0,0,13.046-5.462,17.931,17.931,0,0,0,5.4-13.155" transform="translate(-14.653 -156.881)" fill="#d90018"/>
  </g>
</svg>
