<svg xmlns="http://www.w3.org/2000/svg" width="14.545" height="14.542" viewBox="0 0 14.545 14.542">
  <path id="Path_25" data-name="Path 25" d="M7.271-13.527A3.723,3.723,0,0,0,3.543-9.8,3.723,3.723,0,0,0,7.271-6.07,3.723,3.723,0,0,0,11-9.8,3.723,3.723,0,0,0,7.271-13.527Zm0,6.152A2.428,2.428,0,0,1,4.847-9.8a2.426,2.426,0,0,1,2.424-2.424A2.426,2.426,0,0,1,9.7-9.8,2.428,2.428,0,0,1,7.271-7.375Zm4.751-6.3a.87.87,0,0,0-.87-.87.87.87,0,0,0-.87.87.868.868,0,0,0,.87.87A.868.868,0,0,0,12.022-13.68Zm2.469.883a4.3,4.3,0,0,0-1.175-3.047,4.332,4.332,0,0,0-3.047-1.175c-1.2-.068-4.8-.068-6,0a4.326,4.326,0,0,0-3.047,1.171A4.318,4.318,0,0,0,.048-12.8c-.068,1.2-.068,4.8,0,6A4.3,4.3,0,0,0,1.223-3.753,4.337,4.337,0,0,0,4.27-2.579c1.2.068,4.8.068,6,0a4.3,4.3,0,0,0,3.047-1.175A4.332,4.332,0,0,0,14.491-6.8c.068-1.2.068-4.8,0-6ZM12.94-5.512A2.454,2.454,0,0,1,11.558-4.13a16.027,16.027,0,0,1-4.287.292A16.152,16.152,0,0,1,2.985-4.13,2.454,2.454,0,0,1,1.6-5.512,16.027,16.027,0,0,1,1.31-9.8,16.152,16.152,0,0,1,1.6-14.085a2.454,2.454,0,0,1,1.382-1.382,16.027,16.027,0,0,1,4.287-.292,16.152,16.152,0,0,1,4.287.292,2.454,2.454,0,0,1,1.382,1.382A16.027,16.027,0,0,1,13.232-9.8,16.017,16.017,0,0,1,12.94-5.512Z" transform="translate(0.003 17.07)" fill="#eaeaea"/>
</svg>
