<svg xmlns="http://www.w3.org/2000/svg" width="14.545" height="14.545" viewBox="0 0 14.545 14.545">
  <path id="Path_23" data-name="Path 23" d="M13.506-15.437H1.036A1.043,1.043,0,0,0,0-14.389V-1.941A1.043,1.043,0,0,0,1.036-.892H13.506a1.046,1.046,0,0,0,1.039-1.049V-14.389A1.046,1.046,0,0,0,13.506-15.437ZM4.4-2.97H2.24V-9.912H4.4V-2.97ZM3.318-10.86a1.251,1.251,0,0,1-1.25-1.25,1.251,1.251,0,0,1,1.25-1.25,1.253,1.253,0,0,1,1.25,1.25,1.248,1.248,0,0,1-1.25,1.25Zm9.159,7.89H10.321V-6.347c0-.805-.016-1.841-1.12-1.841-1.123,0-1.3.877-1.3,1.782V-2.97H5.75V-9.912H7.818v.948h.029a2.271,2.271,0,0,1,2.042-1.12c2.182,0,2.588,1.438,2.588,3.308Z" transform="translate(0 15.438)" fill="#eaeaea"/>
</svg>
