<svg xmlns="http://www.w3.org/2000/svg" width="45" height="29" viewBox="0 0 45 29">
  <g id="Group_22" data-name="Group 22" transform="translate(-897.5 -2662.5)">
    <circle id="Ellipse_100" data-name="Ellipse 100" cx="4" cy="4" r="4" transform="translate(900 2663)" fill="none" stroke="#db1c0b" stroke-linecap="round" stroke-linejoin="round" stroke-width="1"/>
    <path id="Path_369" data-name="Path 369" d="M1054,414v-6a4,4,0,0,1,4-4h4a4,4,0,0,1,4,4v8" transform="translate(-156 2273)" fill="none" stroke="#db1c0b" stroke-linecap="round" stroke-linejoin="round" stroke-width="1"/>
    <circle id="Ellipse_101" data-name="Ellipse 101" cx="4" cy="4" r="4" transform="translate(932 2663)" fill="none" stroke="#db1c0b" stroke-linecap="round" stroke-linejoin="round" stroke-width="1"/>
    <path id="Path_370" data-name="Path 370" d="M1086,416v-8a4,4,0,0,1,4-4h4a4,4,0,0,1,4,4v6" transform="translate(-156 2273)" fill="none" stroke="#db1c0b" stroke-linecap="round" stroke-linejoin="round" stroke-width="1"/>
    <circle id="Ellipse_102" data-name="Ellipse 102" cx="6" cy="6" r="6" transform="translate(914 2663)" fill="none" stroke="#db1c0b" stroke-linecap="round" stroke-linejoin="round" stroke-width="1"/>
    <path id="Path_371" data-name="Path 371" d="M1066,418v-2a8,8,0,0,1,8-8h4a8,8,0,0,1,8,8v2" transform="translate(-156 2273)" fill="none" stroke="#db1c0b" stroke-linecap="round" stroke-linejoin="round" stroke-width="1"/>
  </g>
</svg>
