<svg xmlns="http://www.w3.org/2000/svg" width="20.234" height="20.234" viewBox="0 0 20.234 20.234">
  <path id="square-x-twitter" d="M2.891,32A2.893,2.893,0,0,0,0,34.891V49.343a2.893,2.893,0,0,0,2.891,2.891H17.343a2.893,2.893,0,0,0,2.891-2.891V34.891A2.893,2.893,0,0,0,17.343,32Zm13.418,3.794L11.621,41.15l5.515,7.29H12.818L9.439,44.018,5.569,48.44H3.423l5.013-5.731L3.148,35.794H7.574l3.058,4.042,3.532-4.042ZM14.6,47.157,6.928,37.009H5.65l7.759,10.148H14.6Z" transform="translate(0 -32)" fill="#0b1d31"/>
</svg>
